<svg xmlns="http://www.w3.org/2000/svg" xmlns:xlink="http://www.w3.org/1999/xlink" width="21" height="21" viewBox="0 0 21 21"><defs><path id="r4qfa" d="M945.998 4520.5c0 5.798-4.7 10.498-10.498 10.498-5.798 0-10.499-4.7-10.499-10.499 0-5.798 4.7-10.498 10.499-10.498s10.498 4.7 10.498 10.498zm-7.004 0a.692.692 0 0 0-.205-.498l-4.54-4.54a.7.7 0 1 0-.989.99l4.047 4.047-4.047 4.046a.7.7 0 0 0 .99.99l4.539-4.538a.698.698 0 0 0 .205-.498z"/></defs><g><g transform="translate(-925 -4510)"><use xlink:href="#r4qfa"/><use fill="#c7b299" xlink:href="#r4qfa"/></g></g></svg>